<?xml version="1.0" standalone="no"?>
<!DOCTYPE svg PUBLIC "-//W3C//DTD SVG 20010904//EN"
 "http://www.w3.org/TR/2001/REC-SVG-20010904/DTD/svg10.dtd">
<svg version="1.0" xmlns="http://www.w3.org/2000/svg"
 width="343.000000pt" height="343.000000pt" viewBox="0 0 343.000000 343.000000"
 preserveAspectRatio="xMidYMid meet">
<metadata>
Created by potrace 1.14, written by Peter Selinger 2001-2017
</metadata>
<g transform="translate(0.000000,343.000000) scale(0.100000,-0.100000)"
fill="#000000" stroke="none">
<path d="M575 3365 c-137 -35 -226 -85 -320 -180 -78 -77 -122 -147 -163 -257
l-27 -73 0 -1140 0 -1140 27 -73 c41 -110 85 -180 163 -257 77 -78 147 -122
257 -163 l73 -27 1140 0 1140 0 73 27 c110 41 180 85 257 163 78 77 122 147
163 257 l27 73 0 1140 0 1140 -27 73 c-41 110 -85 180 -163 257 -77 78 -147
122 -257 163 l-73 27 -1120 2 c-892 1 -1130 -1 -1170 -12z m1410 -191 c357
-52 668 -198 943 -443 l73 -65 -252 -252 -253 -253 -58 54 c-109 101 -285 195
-443 235 -276 71 -580 30 -819 -110 l-68 -40 -57 51 c-31 29 -128 120 -215
203 -88 83 -157 146 -153 140 3 -5 85 -107 182 -224 l175 -214 -45 -46 -45
-45 -250 250 c-138 137 -249 253 -248 256 9 21 175 158 266 219 268 179 576
281 917 304 78 5 240 -4 350 -20z m-217 -1190 c39 -27 23 -83 -28 -99 -56 -18
-86 57 -38 98 25 21 37 21 66 1z m587 -17 c13 -21 13 -29 0 -73 -8 -27 -15
-50 -15 -52 0 -1 13 4 30 13 43 22 87 19 115 -10 30 -29 31 -51 5 -133 -24
-76 -24 -83 -5 -76 22 9 19 -22 -4 -45 -29 -29 -86 -37 -127 -17 -29 13 -34
21 -34 50 0 19 10 59 21 90 23 59 20 78 -9 60 -24 -15 -66 -154 -53 -175 5 -9
7 -20 4 -23 -9 -8 -193 -8 -193 1 0 4 8 16 18 27 18 20 102 284 102 318 0 9
-5 20 -10 23 -29 18 25 43 92 44 39 1 50 -3 63 -22z m-195 -32 c31 -34 18 -59
-34 -63 -20 -2 -36 -5 -36 -6 0 -2 6 -22 14 -44 15 -43 9 -89 -15 -119 -24
-28 -75 -47 -144 -52 -39 -3 -69 -10 -68 -16 2 -5 38 -13 80 -16 93 -6 111
-13 119 -46 19 -72 -61 -117 -206 -118 -79 0 -101 4 -130 21 -30 18 -35 25
-34 57 l1 37 -88 0 c-69 0 -89 3 -89 14 0 8 6 16 13 19 7 3 26 48 41 101 24
80 27 98 16 111 -21 26 10 48 74 53 94 8 103 -16 60 -156 -27 -90 -26 -149 3
-138 8 3 19 6 24 6 5 0 9 13 9 29 0 19 8 35 21 45 20 14 20 16 5 37 -35 51 -5
124 65 159 33 17 55 21 114 18 l74 -3 -6 26 c-3 15 0 36 6 48 17 32 80 29 111
-4z m-1326 -47 c-4 -35 -2 -79 3 -98 l9 -35 37 55 c41 61 44 75 21 101 -27 30
-8 39 87 39 72 0 91 -3 96 -16 3 -8 1 -20 -6 -27 -12 -12 -14 -81 -3 -109 5
-13 18 1 53 60 51 84 78 103 127 86 22 -7 28 -16 30 -45 4 -48 -19 -71 -66
-67 -36 3 -36 2 -99 -102 -85 -142 -99 -160 -127 -160 -34 0 -44 18 -52 95
-11 116 -12 116 -87 5 -60 -89 -71 -100 -98 -100 -38 0 -41 10 -64 180 -11 82
-24 142 -33 152 -8 10 -12 24 -9 33 5 12 25 15 96 15 l90 0 -5 -62z m1919 28
c3 -8 3 -24 0 -35 -4 -17 -1 -21 21 -21 28 0 34 -18 14 -38 -7 -7 -22 -12 -35
-12 -19 0 -25 -10 -43 -69 -27 -92 -26 -101 10 -101 35 0 38 -12 11 -39 -46
-46 -150 -51 -187 -10 -18 20 -18 22 0 87 29 105 30 121 11 142 -21 23 -12 40
22 40 15 0 41 14 64 35 42 38 102 49 112 21z m-1233 -61 c50 -26 54 -94 7
-129 -19 -14 -47 -21 -92 -24 -68 -5 -76 -10 -48 -37 16 -17 52 -17 111 1 30
9 29 -16 -3 -54 -55 -65 -191 -59 -239 10 -22 31 -20 111 4 158 18 36 55 70
90 83 32 12 142 7 170 -8z m473 -684 c38 -15 39 -36 11 -132 -15 -49 -24 -92
-21 -96 9 -8 37 16 37 32 0 8 12 27 26 44 21 25 33 31 67 31 47 0 77 -22 77
-57 0 -28 -33 -63 -60 -63 -11 0 -29 9 -40 20 -11 11 -20 18 -20 16 0 -2 -2
-11 -6 -19 -3 -9 6 -19 25 -27 35 -14 45 -36 35 -76 -6 -23 -4 -26 10 -21 25
10 20 -26 -8 -52 -26 -25 -89 -31 -124 -12 -28 15 -37 52 -23 92 12 35 9 44
-12 36 -19 -7 -39 -87 -26 -104 6 -7 8 -17 4 -23 -7 -11 -177 -14 -188 -3 -4
3 0 14 9 24 25 28 113 323 102 343 -12 22 -3 34 35 45 43 12 61 13 90 2z
m-857 -54 c2 -7 -2 -33 -11 -57 -25 -70 -54 -79 -86 -25 -12 19 -27 35 -34 35
-15 0 -86 -242 -82 -285 l2 -30 -92 -3 c-82 -2 -93 -1 -93 14 0 9 7 22 15 28
12 9 85 238 85 269 0 18 -29 4 -60 -28 -48 -50 -76 -45 -73 12 4 85 -3 83 224
83 154 0 201 -3 205 -13z m1339 -81 c30 -20 41 -59 27 -91 -18 -39 -56 -57
-122 -59 -61 -1 -74 -12 -45 -36 11 -9 33 -11 75 -6 71 8 74 1 27 -51 -29 -31
-41 -37 -89 -41 -63 -5 -120 16 -145 54 -32 49 -8 173 41 213 50 42 179 51
231 17z m-1198 3 c8 -8 17 -8 31 0 54 29 122 2 122 -48 0 -67 -69 -96 -109
-45 -11 14 -24 23 -29 20 -5 -3 -19 -40 -32 -82 -18 -62 -20 -81 -11 -96 6
-10 9 -23 6 -28 -4 -6 -49 -10 -101 -10 -97 0 -109 6 -80 39 24 28 70 193 58
211 -11 19 -5 34 18 43 27 10 116 7 127 -4z m440 -9 c43 -26 50 -59 30 -136
-21 -76 -21 -75 -2 -68 34 14 11 -42 -26 -61 -38 -20 -82 -19 -110 4 -23 19
-24 19 -48 0 -57 -45 -151 -8 -151 61 0 72 50 106 146 97 58 -6 62 -5 68 16
16 59 -1 89 -22 42 -17 -37 -53 -50 -88 -33 -39 18 -42 50 -8 77 37 29 164 30
211 1z m981 8 c9 -9 15 -9 24 0 7 7 31 12 54 12 33 0 47 -5 58 -22 50 -71 -39
-151 -92 -83 -11 14 -24 25 -30 25 -5 0 -20 -37 -32 -81 -19 -66 -21 -85 -11
-101 6 -10 9 -23 6 -28 -7 -11 -188 -14 -198 -3 -4 3 1 16 12 27 10 12 31 62
46 113 24 79 26 95 14 109 -11 14 -11 18 6 30 23 17 126 19 143 2z m-843 -720
c0 -149 -5 -158 -84 -166 -78 -7 -118 4 -136 38 -22 43 -19 112 6 144 18 23
27 26 85 26 62 0 64 -1 64 -25 0 -24 -3 -25 -55 -25 l-55 0 0 -50 0 -50 60 0
60 0 0 121 0 120 28 -3 27 -3 0 -127z m-500 10 l57 -100 50 89 c60 104 75 123
94 116 11 -4 14 -34 14 -145 0 -139 0 -139 -22 -136 -21 3 -23 10 -28 77 l-5
73 -43 -76 c-24 -42 -50 -76 -57 -76 -15 0 -41 34 -76 100 l-24 45 -5 -70 c-5
-67 -6 -70 -30 -70 l-25 0 -3 129 c-4 192 15 200 103 44z m775 10 c0 91 0 92
25 92 l25 0 0 -135 c0 -180 -3 -181 -127 -50 l-92 100 -3 -95 c-3 -90 -4 -95
-25 -98 -23 -3 -23 -3 -23 136 0 103 3 142 13 145 6 3 56 -39 110 -91 l97 -97
0 93z"/>
<path d="M1934 1785 c-19 -46 -18 -85 2 -85 17 0 44 57 44 95 0 37 -28 31 -46
-10z"/>
<path d="M1830 1540 c0 -12 9 -22 23 -25 30 -8 77 10 77 30 0 11 -12 15 -50
15 -43 0 -50 -3 -50 -20z"/>
<path d="M1403 1809 c-16 -20 -27 -69 -15 -69 18 0 33 29 30 56 -2 23 -5 25
-15 13z"/>
<path d="M2348 990 c-10 -13 -18 -36 -18 -49 l0 -25 21 20 c14 14 19 31 17 50
l-3 29 -17 -25z"/>
<path d="M1555 860 c-3 -11 -3 -25 0 -30 9 -14 31 4 38 30 7 27 -29 27 -38 0z"/>
</g>
</svg>
